<svg xmlns="http://www.w3.org/2000/svg" width="48" height="48" viewBox="0 0 48 48">
  <path d="M9.22998672,0 L38.7700133,0 C41.9794807,0 43.1433113,0.334172208 44.3166446,0.961677744 C45.4899778,1.58918326 46.4108167,2.51002214 47.0383222,3.68335546 C47.6658278,4.85668879 48,6.02051926 48,9.22998672 L48,38.7700133 C48,41.9794807 47.6658278,43.1433113 47.0383222,44.3166446 C46.4108167,45.4899778 45.4899778,46.4108167 44.3166446,47.0383222 C43.1433113,47.6658278 41.9794807,48 38.7700133,48 L9.22998672,48 C6.02051926,48 4.85668879,47.6658278 3.68335546,47.0383222 C2.51002214,46.4108167 1.58918326,45.4899778 0.961677744,44.3166446 C0.334172208,43.1433113 0,41.9794807 0,38.7700133 L0,9.22998672 C0,6.02051926 0.334172208,4.85668879 0.961677744,3.68335546 C1.58918326,2.51002214 2.51002214,1.58918326 3.68335546,0.961677744 C4.85668879,0.334172208 6.02051926,0 9.22998672,0 Z M31.9539425,16.3029437 L19.2509988,29.0058874 L14.8970563,24.6519451 C13.959798,23.7146868 12.440202,23.7146868 11.5029437,24.6519451 C10.5656854,25.5892034 10.5656854,27.1087992 11.5029437,28.0460575 L17.5539424,34.0970563 C18.4912007,35.0343146 20.0107966,35.0343146 20.9480549,34.0970563 L35.3480549,19.6970563 C36.2853132,18.759798 36.2853132,17.240202 35.3480549,16.3029437 C34.4107966,15.3656854 32.8912008,15.3656854 31.9539425,16.3029437 Z"/>
</svg>
