<svg xmlns="http://www.w3.org/2000/svg" width="48" height="48" viewBox="0 0 48 48">
  <path fill-rule="evenodd" d="M9.22998672,4.8 C7.02847747,4.8 6.4900373,4.9039776 5.94702998,5.19438108 C5.61018533,5.37452758 5.37452758,5.61018533 5.19438108,5.94702998 C4.9039776,6.4900373 4.8,7.02847747 4.8,9.22998672 L4.8,38.7700133 C4.8,40.9715225 4.9039776,41.5099627 5.19438108,42.0529699 C5.37452758,42.3898147 5.61018533,42.6254724 5.94702998,42.8056188 C6.4900373,43.0960224 7.02847747,43.2 9.22998672,43.2 L38.7700133,43.2 C40.9715225,43.2 41.5099627,43.0960224 42.0529699,42.8056188 C42.3898147,42.6254724 42.6254724,42.3898147 42.8056188,42.0529699 C43.0960224,41.5099627 43.2,40.9715225 43.2,38.7700133 L43.2,9.22998672 C43.2,7.02847747 43.0960224,6.4900373 42.8056188,5.94702998 C42.6254724,5.61018533 42.3898147,5.37452758 42.0529699,5.19438108 C41.5099627,4.9039776 40.9715225,4.8 38.7700133,4.8 L9.22998672,4.8 Z M9.22998672,0 L38.7700133,0 C41.9794807,0 43.1433113,0.334172208 44.3166446,0.961677744 C45.4899778,1.58918326 46.4108167,2.51002214 47.0383222,3.68335546 C47.6658278,4.85668879 48,6.02051926 48,9.22998672 L48,38.7700133 C48,41.9794807 47.6658278,43.1433113 47.0383222,44.3166446 C46.4108167,45.4899778 45.4899778,46.4108167 44.3166446,47.0383222 C43.1433113,47.6658278 41.9794807,48 38.7700133,48 L9.22998672,48 C6.02051926,48 4.85668879,47.6658278 3.68335546,47.0383222 C2.51002214,46.4108167 1.58918326,45.4899778 0.961677744,44.3166446 C0.334172208,43.1433113 0,41.9794807 0,38.7700133 L0,9.22998672 C0,6.02051926 0.334172208,4.85668879 0.961677744,3.68335546 C1.58918326,2.51002214 2.51002214,1.58918326 3.68335546,0.961677744 C4.85668879,0.334172208 6.02051926,0 9.22998672,0 Z"/>
</svg>
