<svg xmlns="http://www.w3.org/2000/svg" width="48" height="48" viewBox="0 0 48 48">
  <path fill-rule="evenodd" d="M24,43.2 C34.6038672,43.2 43.2,34.6038672 43.2,24 C43.2,13.3961328 34.6038672,4.8 24,4.8 C13.3961328,4.8 4.8,13.3961328 4.8,24 C4.8,34.6038672 13.3961328,43.2 24,43.2 Z M24,48 C10.745166,48 0,37.254834 0,24 C0,10.745166 10.745166,0 24,0 C37.254834,0 48,10.745166 48,24 C48,37.254834 37.254834,48 24,48 Z M24,36 C30.6274169,36 36,30.6274169 36,24 C36,17.372583 30.6274169,12 24,12 C17.372583,12 12,17.372583 12,24 C12,30.6274169 17.372583,36 24,36 Z"/>
</svg>
