<svg width="34" height="34" viewBox="0 0 34 34" xmlns="http://www.w3.org/2000/svg">
<path fill-rule="evenodd" clip-rule="evenodd" d="M21.5935 6.35969C20.2984 6.51511 19.2104 6.07476 18.2002 4.83141C16.8273 3.14771 14.6774 2.73326 13.0714 4.15793C13.2527 3.27722 13.5894 2.47423 14.3665 1.64533C15.8171 0.0652377 18.2779 0.0134314 19.599 1.80075L20.8423 3.51035C21.5935 4.52057 22.6296 5.24586 23.7953 5.5826C23.2772 5.91934 22.526 6.25608 21.5935 6.35969ZM15.1696 4.59828C14.1852 4.57237 13.2786 5.27176 12.8901 6.33378C12.5533 7.24039 12.5015 8.19881 12.5015 8.53555C13.3822 7.08497 15.0918 7.08497 16.3352 8.06929C16.9828 8.58735 17.8376 9.0018 18.7442 8.87229C19.6767 8.71687 20.3243 8.06929 20.8423 7.49942C19.2104 7.44762 18.2261 6.80004 17.2936 5.76392C16.6978 5.11634 16.1021 4.62418 15.1696 4.59828ZM15.4545 11.359C16.3352 11.7216 17.0346 11.7216 17.5267 11.4367C18.0448 11.1518 18.4333 10.6078 18.6924 9.98613C17.475 10.218 16.7847 9.76071 16.1497 9.34002C15.6496 9.00877 15.1838 8.70021 14.522 8.76868C14.0557 8.82049 13.3045 9.15723 13.0714 9.98613C12.8901 10.6855 13.0196 11.4367 13.2527 11.9807C13.7449 11.2554 14.6256 11.0223 15.4545 11.359ZM11.1027 14.9336C11.9316 14.4674 12.372 13.9493 12.4497 13.3535C12.5533 12.7577 12.372 12.1102 12.0353 11.5403C11.454 12.6447 10.669 12.9013 9.9454 13.1378C9.3791 13.3229 8.85044 13.4957 8.48653 14.0529C8.2275 14.4415 8.02028 15.2444 8.53834 15.9438C8.95279 16.5137 9.65217 16.9022 10.1961 17.0577C9.93711 16.2029 10.3257 15.374 11.1027 14.9336ZM5.55949 13.8198C4.98962 12.8355 5.01553 11.6957 5.6372 10.9445C6.23297 10.2452 7.01007 10.0638 7.83896 10.012C9.23773 9.93432 10.3516 9.57168 11.4136 8.32833C11.5431 9.07952 11.6467 9.98613 11.1805 10.815C10.7401 11.618 9.85941 12.0325 9.05641 12.2138C7.52813 12.5764 6.4402 13.9234 7.03597 15.5035C6.77694 15.2963 6.05165 14.6487 5.55949 13.8198ZM7.68352 8.71687C9.28951 8.69097 10.2997 8.1211 10.9991 7.00727C11.4913 6.20427 11.6985 5.40128 11.7503 4.7796C10.766 5.47899 9.54854 5.84163 8.30519 5.78982L6.20704 5.71211C4.00528 5.6344 2.5029 7.60304 2.83964 9.72709C3.02096 10.8409 3.43541 11.618 4.00528 12.2915C3.87576 10.1674 5.53356 8.74278 7.68352 8.71687ZM10.7919 18.5342C11.1805 18.9745 11.3359 19.648 11.1805 20.5805C11.0251 21.4612 11.4654 22.2642 12.3202 22.601C11.8281 22.9377 11.1028 23.2486 10.4034 23.2227C9.52268 23.1968 9.03052 22.5233 8.8751 22.0829C8.67007 21.445 8.86576 20.9174 9.0745 20.3545C9.34044 19.6374 9.62755 18.8632 9.13414 17.7312C9.78171 17.8348 10.3775 18.0938 10.7919 18.5342ZM4.65291 22.3678C4.86013 23.3522 5.74084 24.0515 6.85467 24.207C7.81309 24.3365 8.7456 24.1811 9.10824 24.1034C7.50225 23.5853 7.1137 21.9016 7.78718 20.4769C8.14983 19.7257 8.38296 18.7932 8.02031 17.9384C7.65767 17.0577 6.88058 16.5915 6.233 16.2029C6.54384 17.8089 6.12939 18.8968 5.32639 20.0366C4.83423 20.736 4.47159 21.4612 4.65291 22.3678ZM4.91193 15.7107C5.37819 16.9541 5.17097 18.0938 4.18665 19.3631C2.86559 21.0727 2.9433 23.2485 4.6529 24.4919C3.7722 24.5178 2.9174 24.3624 1.93308 23.7925C0.093957 22.7046 -0.527717 20.3215 0.922856 18.6378L2.29572 17.0577C3.09872 16.1252 3.56497 14.9595 3.64268 13.7421C4.10894 14.1824 4.6011 14.83 4.91193 15.7107ZM15.6358 24.0256C14.9882 23.3003 14.3925 23.0154 13.7967 23.0413C13.2009 23.0931 12.6051 23.4039 12.1389 23.8443C13.3433 24.1635 13.7673 24.873 14.1578 25.5264C14.4644 26.0393 14.7502 26.5176 15.3768 26.7454C15.8171 26.9008 16.646 26.9268 17.2159 26.2533C17.6821 25.7093 17.8894 24.9581 17.9412 24.3882C17.1382 24.8804 16.2316 24.6991 15.6358 24.0256ZM15.7912 29.6725C14.9623 30.4496 13.8485 30.6827 12.9678 30.2423C12.1389 29.8279 11.8021 29.1026 11.569 28.2737C11.1805 26.9267 10.5847 25.9165 9.13413 25.1653C9.85942 24.8804 10.7142 24.5955 11.6208 24.8545C12.5274 25.1135 13.0973 25.8647 13.4599 26.6159C14.1334 28.0406 15.7135 28.7918 17.1123 27.8593C16.9569 28.1701 16.4906 28.999 15.7912 29.6725ZM10.3516 28.74C9.98894 27.1858 9.18594 26.3051 7.94259 25.8906C7.06189 25.5798 6.23299 25.5798 5.61131 25.6575C6.51792 26.4605 7.1396 27.5743 7.37272 28.7918L7.76127 30.864C8.17572 33.0399 10.4034 34.0501 12.3979 33.273C13.4341 32.8586 14.1075 32.2887 14.6515 31.5634C12.5792 32.1333 10.8437 30.8122 10.3516 28.74ZM19.2104 23.5334C19.5472 23.0413 20.1689 22.7563 21.1273 22.7045C22.008 22.6527 22.7074 22.0569 22.8628 21.1503C23.2772 21.5389 23.7435 22.1865 23.873 22.8858C24.0284 23.7406 23.4845 24.3882 23.0959 24.6213C22.5239 24.976 21.967 24.9012 21.3695 24.8208C20.6141 24.7193 19.7939 24.6091 18.796 25.3466C18.7442 24.6732 18.8737 24.0256 19.2104 23.5334ZM24.3133 28.6622C25.2199 28.2478 25.7121 27.2376 25.6085 26.0978C25.5308 25.1394 25.1681 24.2587 25.0127 23.922C24.8573 25.6057 23.3031 26.3569 21.7748 26.0201C20.9718 25.8388 20.0134 25.8129 19.2622 26.3569C18.4851 26.9008 18.2002 27.7556 17.9671 28.5068C19.4695 27.8592 20.6092 28.0147 21.9044 28.5327C22.7073 28.8436 23.4585 29.0508 24.3133 28.6622ZM17.7599 29.8797C18.8737 29.1544 20.0393 29.1026 21.4899 29.7761C23.4326 30.6827 25.5567 30.1387 26.3856 28.1442C26.5928 28.999 26.6446 29.9056 26.3079 30.9676C25.6862 33.014 23.5104 34.1278 21.5417 33.0917L19.6767 32.1073C18.5629 31.5375 17.3195 31.3303 16.128 31.5375C16.4388 31.0194 16.9828 30.3718 17.7599 29.8797ZM23.4845 17.5757C22.9146 18.3528 22.7851 19.0263 22.9405 19.5703C23.1218 20.1401 23.5622 20.6582 24.1061 21.0208C24.1497 19.7858 24.7476 19.2109 25.3007 18.679C25.7336 18.2627 26.1392 17.8727 26.2302 17.2131C26.282 16.7468 26.1266 15.9438 25.3495 15.5294C24.7278 15.2186 23.9507 15.1667 23.3549 15.2704C23.9766 15.9438 24.0025 16.8504 23.4845 17.5757ZM28.95 16.177C29.8825 16.7987 30.3747 17.8348 30.1416 18.7932C29.9343 19.6998 29.2868 20.192 28.5097 20.5805C27.2922 21.254 26.4374 22.057 26.023 23.6371C25.5826 23.0154 25.1164 22.2383 25.1682 21.3058C25.2459 20.3733 25.8416 19.648 26.4892 19.1299C27.7067 18.1456 28.0952 16.4619 26.8778 15.2963C27.2145 15.374 28.147 15.633 28.95 16.177ZM29.2609 21.6943C27.8362 22.3937 27.1368 23.3521 27.0073 24.6732C26.9037 25.6057 27.0591 26.4087 27.2922 27.0045C27.888 25.9424 28.8205 25.0876 29.9602 24.5955L31.903 23.7666C33.9493 22.8859 34.4156 20.4769 33.224 18.6896C32.6024 17.7571 31.8771 17.239 31.0741 16.8764C32.0843 18.7414 31.1777 20.7359 29.2609 21.6943ZM22.2152 14.2083C21.6712 13.9752 21.2309 13.4571 20.9718 12.5246C20.7387 11.6698 19.9875 11.1258 19.1068 11.2035C19.3918 10.7114 19.9098 10.1156 20.5574 9.83068C21.3604 9.46804 22.1116 9.85659 22.4224 10.1933C22.8904 10.6727 22.9409 11.2276 22.9951 11.8224C23.0638 12.5775 23.1384 13.3969 24.0802 14.2083C23.4326 14.3896 22.7851 14.4414 22.2152 14.2083ZM26.0748 8.09516C25.479 7.31807 24.3652 7.05904 23.2772 7.39578C22.3706 7.68071 21.5676 8.25058 21.3086 8.45781C22.9923 8.25058 24.0543 9.59754 24.0543 11.1517C24.0543 11.9806 24.2615 12.9131 24.935 13.5348C25.6344 14.1565 26.541 14.2601 27.3181 14.3119C26.3597 12.9908 26.2561 11.8252 26.4633 10.4523C26.6187 9.62345 26.6446 8.82045 26.0748 8.09516ZM28.7169 14.2342C27.7844 13.3017 27.4476 12.162 27.7844 10.6078C28.2506 8.48372 27.2404 6.54098 25.1163 6.20424C25.9193 5.8157 26.7741 5.58257 27.888 5.66028C30.012 5.8416 31.618 7.70662 31.0222 9.85658L30.4783 11.9029C30.1674 13.0945 30.2451 14.3637 30.7114 15.4776C30.1156 15.2703 29.3903 14.8818 28.7169 14.2342Z" />
</svg>
