<svg width="20" height="20" viewBox="0 0 20 20" xmlns="http://www.w3.org/2000/svg">
<path fill-rule="evenodd" clip-rule="evenodd" d="M2 2V15.8388L3.64104 14.5259C4.0666 14.1855 4.59534 14 5.14031 14H18V2H2ZM4.89043 16.0877C4.96136 16.0309 5.04948 16 5.14031 16H19.6C19.8209 16 20 15.8209 20 15.6V0.4C20 0.179086 19.8209 0 19.6 0H0.4C0.179086 0 0 0.179086 0 0.4V19.1677C0 19.5032 0.387973 19.6896 0.649878 19.4801L4.89043 16.0877ZM4 6.8C4 6.91046 4.08954 7 4.2 7H15.8C15.9105 7 16 6.91046 16 6.8V5.2C16 5.08954 15.9105 5 15.8 5H4.2C4.08954 5 4 5.08954 4 5.2V6.8ZM4.2 9C4.08954 9 4 9.08954 4 9.2V10.8C4 10.9105 4.08954 11 4.2 11H15.8C15.9105 11 16 10.9105 16 10.8V9.2C16 9.08954 15.9105 9 15.8 9H4.2Z" />
</svg>
