<svg width="18" height="21" viewBox="0 0 18 21" xmlns="http://www.w3.org/2000/svg">
<path fill-rule="evenodd" clip-rule="evenodd" d="M13.9938 5.18695C13.9938 8.05162 11.6716 10.3739 8.80689 10.3739C5.94222 10.3739 3.61994 8.05162 3.61994 5.18695C3.61994 2.32228 5.94222 0 8.80689 0C11.6716 0 13.9938 2.32228 13.9938 5.18695ZM17.3485 16.0704C15.4923 13.0776 12.0617 11.6937 8.80684 11.6937C5.552 11.6937 2.12139 13.0776 0.265156 16.0704C-0.213409 16.842 -0.0224135 17.8305 0.662932 18.3799C5.56338 21.5974 12.0082 21.6312 16.9507 18.3799C17.6846 17.8972 17.8271 16.842 17.3485 16.0704Z" />
</svg>
